<svg width="32" height="32" viewBox="0 0 32 32" fill="none" xmlns="http://www.w3.org/2000/svg">
<path d="M16.0013 14.6667C17.7694 14.6667 19.4651 15.3691 20.7153 16.6194C21.9656 17.8696 22.668 19.5653 22.668 21.3334V29.3334H20.0013V21.3334C20.0014 20.3131 19.6115 19.3314 18.9116 18.5891C18.2116 17.8467 17.2545 17.3999 16.236 17.3401L16.0013 17.3334C14.981 17.3334 13.9993 17.7232 13.257 18.4231C12.5146 19.1231 12.0678 20.0802 12.008 21.0987L12.0013 21.3334V29.3334H9.33463V21.3334C9.33464 19.5653 10.037 17.8696 11.2873 16.6194C12.5375 15.3691 14.2332 14.6667 16.0013 14.6667ZM7.33464 18.6667C7.70797 18.6676 8.06797 18.7094 8.41464 18.7921C8.1875 19.471 8.05252 20.1773 8.0133 20.8921L8.0013 21.3334V21.4481C7.84801 21.3933 7.68861 21.3575 7.52664 21.3414L7.33464 21.3334C6.83767 21.3334 6.3585 21.5184 5.99049 21.8524C5.62249 22.1864 5.39201 22.6454 5.34397 23.1401L5.33464 23.3334V29.3334H2.66797V23.3334C2.66797 22.0957 3.15963 20.9088 4.0348 20.0336C4.90997 19.1584 6.09696 18.6667 7.33464 18.6667ZM24.668 18.6667C25.9056 18.6667 27.0926 19.1584 27.9678 20.0336C28.843 20.9088 29.3346 22.0957 29.3346 23.3334V29.3334H26.668V23.3334C26.668 22.8364 26.483 22.3573 26.149 21.9893C25.815 21.6213 25.3559 21.3908 24.8613 21.3427L24.668 21.3334C24.4333 21.3343 24.2111 21.3721 24.0013 21.4467V21.3334C24.0013 20.4454 23.8573 19.5921 23.5906 18.7947C23.9346 18.7107 24.2973 18.6667 24.668 18.6667ZM7.33464 10.6667C8.21869 10.6667 9.06654 11.0179 9.69166 11.6431C10.3168 12.2682 10.668 13.116 10.668 14.0001C10.668 14.8841 10.3168 15.732 9.69166 16.3571C9.06654 16.9822 8.21869 17.3334 7.33464 17.3334C6.45058 17.3334 5.60273 16.9822 4.97761 16.3571C4.35249 15.732 4.0013 14.8841 4.0013 14.0001C4.0013 13.116 4.35249 12.2682 4.97761 11.6431C5.60273 11.0179 6.45058 10.6667 7.33464 10.6667ZM24.668 10.6667C25.552 10.6667 26.3999 11.0179 27.025 11.6431C27.6501 12.2682 28.0013 13.116 28.0013 14.0001C28.0013 14.8841 27.6501 15.732 27.025 16.3571C26.3999 16.9822 25.552 17.3334 24.668 17.3334C23.7839 17.3334 22.9361 16.9822 22.3109 16.3571C21.6858 15.732 21.3346 14.8841 21.3346 14.0001C21.3346 13.116 21.6858 12.2682 22.3109 11.6431C22.9361 11.0179 23.7839 10.6667 24.668 10.6667ZM7.33464 13.3334C7.15782 13.3334 6.98826 13.4037 6.86323 13.5287C6.73821 13.6537 6.66797 13.8233 6.66797 14.0001C6.66797 14.1769 6.73821 14.3465 6.86323 14.4715C6.98826 14.5965 7.15782 14.6667 7.33464 14.6667C7.51145 14.6667 7.68102 14.5965 7.80604 14.4715C7.93106 14.3465 8.0013 14.1769 8.0013 14.0001C8.0013 13.8233 7.93106 13.6537 7.80604 13.5287C7.68102 13.4037 7.51145 13.3334 7.33464 13.3334ZM24.668 13.3334C24.4912 13.3334 24.3216 13.4037 24.1966 13.5287C24.0715 13.6537 24.0013 13.8233 24.0013 14.0001C24.0013 14.1769 24.0715 14.3465 24.1966 14.4715C24.3216 14.5965 24.4912 14.6667 24.668 14.6667C24.8448 14.6667 25.0143 14.5965 25.1394 14.4715C25.2644 14.3465 25.3346 14.1769 25.3346 14.0001C25.3346 13.8233 25.2644 13.6537 25.1394 13.5287C25.0143 13.4037 24.8448 13.3334 24.668 13.3334ZM16.0013 2.66675C17.4158 2.66675 18.7723 3.22865 19.7725 4.22885C20.7727 5.22904 21.3346 6.58559 21.3346 8.00008C21.3346 9.41457 20.7727 10.7711 19.7725 11.7713C18.7723 12.7715 17.4158 13.3334 16.0013 13.3334C14.5868 13.3334 13.2303 12.7715 12.2301 11.7713C11.2299 10.7711 10.668 9.41457 10.668 8.00008C10.668 6.58559 11.2299 5.22904 12.2301 4.22885C13.2303 3.22865 14.5868 2.66675 16.0013 2.66675ZM16.0013 5.33341C15.2941 5.33341 14.6158 5.61437 14.1157 6.11446C13.6156 6.61456 13.3346 7.29284 13.3346 8.00008C13.3346 8.70732 13.6156 9.3856 14.1157 9.8857C14.6158 10.3858 15.2941 10.6667 16.0013 10.6667C16.7085 10.6667 17.3868 10.3858 17.8869 9.8857C18.387 9.3856 18.668 8.70732 18.668 8.00008C18.668 7.29284 18.387 6.61456 17.8869 6.11446C17.3868 5.61437 16.7085 5.33341 16.0013 5.33341Z" fill="white"/>
</svg>
