<svg width="32" height="32" viewBox="0 0 32 32" fill="none" xmlns="http://www.w3.org/2000/svg">
<path d="M4 27.9999H6.66667V19.9999H4V27.9999ZM16.6133 29.3333L12.7067 28.4799L8.8 27.5599C8.57389 27.5159 8.37073 27.393 8.22667 27.2133C8.07657 27.0394 7.99587 26.8163 8 26.5866V21.2533C8.00377 21.025 8.08353 20.8045 8.22667 20.6266C8.37558 20.4525 8.57662 20.3309 8.8 20.2799L15.1733 19.4933L21.56 18.6933L21.76 19.4399L21.96 20.1733C21.9635 20.4191 21.8939 20.6604 21.76 20.8666C21.6375 21.0822 21.4511 21.2545 21.2267 21.3599L18.56 22.0266L15.8933 22.6933L18.0533 23.5733L20.2267 24.4399L23.2533 23.5866L26.2 22.6666C26.4618 22.6004 26.7392 22.6386 26.9733 22.7733C27.0913 22.8369 27.1948 22.9243 27.2774 23.0298C27.36 23.1354 27.4199 23.2568 27.4533 23.3866L27.7067 24.4133L27.9733 25.4266C28.0338 25.68 27.9957 25.9469 27.8667 26.1733C27.7295 26.4016 27.51 26.5686 27.2533 26.6399L22.4133 27.9733L17.5733 29.3066C17.414 29.3272 17.2527 29.3272 17.0933 29.3066C16.9359 29.3418 16.7737 29.3508 16.6133 29.3333ZM12 5.33325L9.33333 7.99992L6.66667 10.6666L9.33333 13.3333L12 15.9999L12.9333 15.0666L13.8667 14.1333L12.1333 12.3999L10.4 10.6666L12.1333 8.93325L13.8667 7.19992L12.9333 6.26659L12 5.33325ZM20 5.33325L19.0667 6.26659L18.1333 7.19992L19.8667 8.93325L21.6 10.6666L19.8667 12.3999L18.1333 14.1333L19.0667 15.0666L20 15.9999L22.6667 13.3333L25.3333 10.6666L22.6667 7.99992L20 5.33325Z" fill="white"/>
</svg>
