<svg width="70" height="70" viewBox="0 0 70 70" fill="none" xmlns="http://www.w3.org/2000/svg">
<g clip-path="url(#clip0_2_28193)">
<g clip-path="url(#clip1_2_28193)">
<g clip-path="url(#clip2_2_28193)">
<mask id="mask0_2_28193" style="mask-type:luminance" maskUnits="userSpaceOnUse" x="0" y="0" width="70" height="70">
<path d="M70 0H0V70H70V0Z" fill="white"/>
</mask>
<g mask="url(#mask0_2_28193)">
<mask id="mask1_2_28193" style="mask-type:luminance" maskUnits="userSpaceOnUse" x="0" y="0" width="70" height="70">
<path d="M70 0H0V70H70V0Z" fill="white"/>
</mask>
<g mask="url(#mask1_2_28193)">
<path d="M62.9609 55.0001C61.8709 52.1301 59.5009 49.9701 56.6609 49.0901C58.2609 47.9701 59.3109 46.1101 59.3109 44.0101C59.3109 40.5901 56.5309 37.8101 53.1109 37.8101C49.7009 37.8101 46.9209 40.5901 46.9109 44.0101C46.9109 46.1101 47.9609 47.9601 49.5609 49.0801C47.7509 49.6401 46.1609 50.7101 44.9609 52.1301C45.3909 52.6901 45.7709 53.2901 46.0909 53.9301C47.5009 51.9501 49.8109 50.6501 52.4309 50.6501H53.8009C57.0109 50.6501 59.9409 52.6801 61.0809 55.7001C61.2309 56.1001 61.1809 56.5301 60.9309 56.8801C60.6909 57.2301 60.3109 57.4301 59.8809 57.4301H47.2409C47.3409 58.0501 47.4109 58.6901 47.4109 59.3401V59.4301H59.9009C60.9709 59.4301 61.9809 58.9001 62.5909 58.0201C63.2109 57.1401 63.3409 56.0201 62.9609 55.0001ZM53.1209 39.8201C55.4409 39.8201 57.3209 41.7001 57.3209 44.0201C57.3209 46.3401 55.4409 48.2201 53.1209 48.2201C50.8009 48.2201 48.9209 46.3401 48.9209 44.0201C48.9309 41.7101 50.8109 39.8201 53.1209 39.8201Z" fill="#DAE3FE"/>
<path d="M21.9211 57.4403H10.1111C9.69109 57.4403 9.30109 57.2403 9.06109 56.8903C8.82109 56.5403 8.76109 56.1103 8.91109 55.7103C10.0511 52.6903 12.9711 50.6603 16.1911 50.6603H17.5611C19.8911 50.6603 21.9711 51.6903 23.4011 53.3103C23.7511 52.7203 24.1411 52.1603 24.5811 51.6403C23.4511 50.4703 22.0311 49.5803 20.4311 49.0903C22.0311 47.9703 23.0711 46.1103 23.0711 44.0203C23.0711 40.6003 20.2911 37.8203 16.8711 37.8203C13.4511 37.8203 10.6711 40.6003 10.6711 44.0203C10.6711 46.1203 11.7211 47.9803 13.3211 49.1003C10.4811 49.9803 8.11109 52.1403 7.03109 55.0103C6.65109 56.0203 6.79109 57.1503 7.40109 58.0303C8.01109 58.9103 9.02109 59.4403 10.0911 59.4403H21.7311V59.3503C21.7511 58.7003 21.8211 58.0603 21.9211 57.4403ZM16.8811 39.8203C19.2011 39.8203 21.0811 41.7003 21.0811 44.0203C21.0811 46.3403 19.2011 48.2203 16.8811 48.2203C14.5611 48.2203 12.6811 46.3403 12.6811 44.0203C12.6811 41.7003 14.5611 39.8203 16.8811 39.8203Z" fill="#DAE3FE"/>
<path d="M34.5825 33.7002C31.1225 33.7002 28.3125 36.5102 28.3125 39.9702C28.3125 43.4302 31.1225 46.2402 34.5825 46.2402C38.0425 46.2402 40.8525 43.4302 40.8525 39.9702C40.8525 36.5102 38.0425 33.7002 34.5825 33.7002Z" fill="#DAE3FE"/>
<path d="M46.41 62.6102V59.3502C46.41 53.3202 41.5 48.4102 35.47 48.4102H33.69C27.66 48.4102 22.75 53.3202 22.75 59.3502V62.6102C22.75 63.8402 23.75 64.8402 24.98 64.8402H44.18C45.41 64.8402 46.41 63.8402 46.41 62.6102Z" fill="#DAE3FE"/>
<path d="M26.2124 19.26L29.9324 21.96C30.5324 22.4 30.7824 23.17 30.5524 23.87L29.1324 28.24C28.9424 28.82 29.6024 29.3 30.0924 28.94L33.8124 26.24C34.4124 25.81 35.2224 25.81 35.8224 26.24L39.5424 28.94C40.0324 29.3 40.6924 28.82 40.5024 28.24L39.0824 23.87C38.8524 23.17 39.1024 22.39 39.7024 21.96L43.4224 19.26C43.9124 18.91 43.6624 18.13 43.0524 18.13H38.4524C37.7124 18.13 37.0624 17.65 36.8324 16.95L35.4124 12.58C35.2324 12 34.4124 12 34.2224 12.58L32.8024 16.95C32.5824 17.65 31.9224 18.13 31.1824 18.13H26.5824C25.9724 18.13 25.7224 18.9 26.2124 19.26Z" fill="#E9EFFD"/>
<path d="M35.0117 10.5902C35.5617 10.5902 36.0117 10.1402 36.0117 9.59016V4.66016C36.0117 4.11016 35.5617 3.66016 35.0117 3.66016C34.4617 3.66016 34.0117 4.11016 34.0117 4.66016V9.59016C34.0117 10.1402 34.4617 10.5902 35.0117 10.5902Z" fill="#E9EFFD"/>
<path d="M40.5433 15.4003C40.8033 15.4003 41.0533 15.3003 41.2533 15.1103L45.6833 10.6903C46.0733 10.3003 46.0733 9.67029 45.6833 9.28029C45.2933 8.89029 44.6633 8.89029 44.2733 9.28029L39.8433 13.7003C39.4533 14.0903 39.4533 14.7203 39.8433 15.1103C40.0333 15.3003 40.2833 15.4003 40.5433 15.4003Z" fill="#E9EFFD"/>
<path d="M28.1723 14.9803C28.3723 15.1703 28.6223 15.2703 28.8823 15.2703C29.1423 15.2703 29.3923 15.1703 29.5923 14.9803C29.9823 14.5903 29.9823 13.9603 29.5923 13.5703L25.2923 9.28029C24.9023 8.89029 24.2723 8.89029 23.8823 9.28029C23.4923 9.67029 23.4923 10.3003 23.8823 10.6903L28.1723 14.9803Z" fill="#E9EFFD"/>
</g>
</g>
</g>
</g>
</g>
<defs>
<clipPath id="clip0_2_28193">
<rect width="70" height="70" fill="white"/>
</clipPath>
<clipPath id="clip1_2_28193">
<rect width="70" height="70" fill="white"/>
</clipPath>
<clipPath id="clip2_2_28193">
<rect width="70" height="70" fill="white"/>
</clipPath>
</defs>
</svg>
