<svg width="70" height="70" viewBox="0 0 70 70" fill="none" xmlns="http://www.w3.org/2000/svg">
<g clip-path="url(#clip0_2_28268)">
<g clip-path="url(#clip1_2_28268)">
<path d="M44.6578 31.1102C45.1378 30.5002 45.1378 29.6402 44.6578 29.0302C44.3978 28.6902 38.0478 20.7202 29.8878 20.7202C21.7378 20.7202 15.3778 28.6902 15.1178 29.0302C14.6378 29.6402 14.6378 30.5002 15.1178 31.1102C15.3878 31.4502 21.7378 39.4202 29.8878 39.4202C38.0378 39.4202 44.3978 31.4502 44.6578 31.1102ZM29.8878 37.7402C22.4578 37.7402 16.4378 30.0702 16.4378 30.0702C16.4378 30.0702 22.4678 22.4002 29.8878 22.4002C37.3178 22.4002 43.3378 30.0702 43.3378 30.0702C43.3378 30.0702 37.3178 37.7402 29.8878 37.7402Z" fill="#DAE3FE"/>
<path d="M35.667 29.3999C35.297 29.3999 34.997 29.6999 34.997 30.0699C34.997 32.8799 32.707 35.1699 29.897 35.1699C27.087 35.1699 24.797 32.8799 24.797 30.0699C24.797 27.2599 27.087 24.9699 29.897 24.9699C30.267 24.9699 30.567 24.6699 30.567 24.2999C30.567 23.9299 30.267 23.6299 29.897 23.6299C26.347 23.6299 23.457 26.5199 23.457 30.0699C23.457 33.6199 26.347 36.5099 29.897 36.5099C33.447 36.5099 36.337 33.6199 36.337 30.0699C36.337 29.6999 36.037 29.3999 35.667 29.3999Z" fill="#E9EFFD"/>
<path d="M34.6578 28.2598C34.7578 28.5298 35.0178 28.6998 35.2878 28.6998C35.3678 28.6998 35.4478 28.6898 35.5178 28.6598C35.8678 28.5298 36.0478 28.1398 35.9178 27.7898C35.5178 26.6998 34.7978 25.7298 33.8478 24.9798C33.5578 24.7498 33.1278 24.7998 32.8978 25.0998C32.6678 25.3898 32.7178 25.8198 33.0178 26.0498C33.7778 26.6398 34.3378 27.3998 34.6578 28.2598Z" fill="#E9EFFD"/>
<path d="M29.9153 26.8501C29.2453 26.8501 28.6353 27.0601 28.1253 27.4201C27.2653 27.9901 26.6953 28.9701 26.6953 30.0701C26.6953 31.8301 28.1253 33.2601 29.8853 33.2601C31.6453 33.2601 33.0753 31.8301 33.0753 30.0701C33.0753 29.8401 33.0553 29.6201 33.0053 29.4001C32.7253 27.9501 31.4453 26.8501 29.9153 26.8501Z" fill="#DAE3FE"/>
<path d="M31.658 25.27C32.068 25.27 32.398 24.94 32.398 24.53C32.398 24.12 32.068 23.79 31.658 23.79C31.248 23.79 30.918 24.12 30.918 24.53C30.918 24.94 31.248 25.27 31.658 25.27Z" fill="#E9EFFD"/>
<path d="M59.0056 55.2802L45.6656 41.9402C45.6256 41.9002 45.5856 41.8802 45.5556 41.8502C48.0256 38.5702 49.5156 34.5002 49.5156 30.0702C49.5056 19.2402 40.7256 10.4502 29.8856 10.4502C19.0556 10.4502 10.2656 19.2302 10.2656 30.0702C10.2656 40.9002 19.0456 49.6902 29.8856 49.6902C34.4956 49.6902 38.7356 48.0902 42.0856 45.4202C42.1056 45.4402 42.1156 45.4602 42.1356 45.4802L55.4656 58.8202C55.9556 59.3102 56.5956 59.5502 57.2356 59.5502C57.8756 59.5502 58.5156 59.3102 59.0056 58.8202C59.9756 57.8402 59.9756 56.2602 59.0056 55.2802ZM12.8256 30.0702C12.8256 20.6602 20.4856 13.0102 29.8856 13.0102C39.2856 13.0102 46.9456 20.6602 46.9456 30.0702C46.9456 39.4802 39.2956 47.1302 29.8856 47.1302C20.4756 47.1302 12.8256 39.4802 12.8256 30.0702Z" fill="#DAE3FE"/>
</g>
</g>
<defs>
<clipPath id="clip0_2_28268">
<rect width="70" height="70" fill="white"/>
</clipPath>
<clipPath id="clip1_2_28268">
<rect width="70" height="70" fill="white"/>
</clipPath>
</defs>
</svg>
