<svg width="70" height="70" viewBox="0 0 70 70" fill="none" xmlns="http://www.w3.org/2000/svg">
<g clip-path="url(#clip0_2_28302)">
<g clip-path="url(#clip1_2_28302)">
<path d="M39.2395 50.9102L39.6695 50.7902C57.4695 45.0602 53.2395 20.6802 53.1995 20.4402L53.1395 20.1202L52.8195 20.0402C52.7695 20.0302 47.5295 18.7502 45.5395 17.8202C42.1095 16.2202 40.5895 14.8402 39.9195 13.9702C39.6795 13.6602 39.3095 13.4702 38.9195 13.4702C38.5495 13.4702 38.2095 13.6402 37.9895 13.9302C35.4595 17.2502 23.7695 20.1102 23.6595 20.1402L23.3195 20.2202L23.2795 20.5702C23.2695 20.6502 23.0295 23.1702 23.2595 26.7302C23.3795 26.7302 23.4895 26.7102 23.6095 26.7102C23.8295 26.7102 24.0395 26.7302 24.2595 26.7402C24.0795 23.9602 24.1895 21.8202 24.2495 21.0102C26.2895 20.4902 36.2795 17.8202 38.7895 14.5202C38.8195 14.4802 38.8695 14.4502 38.9295 14.4502C39.0095 14.4502 39.0895 14.4902 39.1395 14.5602C39.8795 15.5202 41.5195 17.0302 45.1295 18.7102C46.9395 19.5502 51.0795 20.6102 52.2795 20.9102C52.6995 23.7502 55.2695 44.7002 39.3995 49.8102L39.2495 49.8502C37.8895 49.5002 36.6695 49.0102 35.5395 48.4402C35.3595 48.7202 35.1595 49.0002 34.9595 49.2702C36.2195 49.9202 37.5895 50.4702 39.1295 50.8602L39.2395 50.9102Z" fill="#DAE3FE"/>
<path d="M57.741 16.4301L57.611 15.7201L56.911 15.5501C56.841 15.5301 50.1409 13.9001 47.611 12.7301C43.281 10.7101 41.381 8.99008 40.541 7.90008C40.151 7.38008 39.531 7.08008 38.881 7.08008C38.261 7.08008 37.681 7.36008 37.311 7.85008C34.681 11.2901 23.271 14.6701 19.101 15.6901L18.3409 15.8701L18.261 16.6501C18.251 16.7801 17.8009 21.5001 18.5009 27.6801C19.1909 27.4101 19.9009 27.1901 20.6409 27.0301C20.1809 22.6901 20.3109 19.1401 20.4009 17.6401C23.7909 16.7701 35.441 13.5401 38.901 9.40008C40.361 11.2101 42.9709 13.0101 46.6709 14.7301C48.9109 15.7701 53.8009 17.0501 55.661 17.5201C56.3009 22.0901 58.9409 47.6301 39.3509 53.9401L39.2809 53.9601C36.9509 53.3401 34.9209 52.4301 33.1209 51.3001C32.5409 51.8301 31.9109 52.3201 31.2409 52.7501L31.2509 52.7601C31.1209 52.8401 30.991 52.9101 30.861 52.9801C30.401 53.2401 29.9409 53.4801 29.451 53.6801C28.211 54.2001 26.9109 54.4901 25.5509 54.6701C25.5709 54.7301 25.601 54.7801 25.621 54.8401C26.881 57.7501 28.1309 60.6201 29.4009 63.5501C29.9909 61.5601 30.5709 59.6401 31.1509 57.7001C32.9709 58.5601 34.761 59.4001 36.611 60.2801C35.751 58.2901 34.9109 56.3201 34.0709 54.3601C35.5809 55.1001 37.2209 55.7301 39.0309 56.1801L39.321 56.2501L40.001 56.0501C63.311 48.5501 57.801 16.7501 57.741 16.4301Z" fill="#DAE3FE"/>
<path d="M26.9118 51.7199C27.8418 51.4298 28.5618 50.9298 28.9418 49.9998C29.0818 49.6598 29.2818 49.3299 29.5018 49.0399C30.0818 48.2698 30.8818 47.8398 31.8218 47.6598C32.5418 47.5198 33.1118 47.1599 33.5118 46.5399C34.0918 45.6498 34.3618 44.7298 33.8818 43.6898C33.7118 43.3098 33.6219 42.8799 33.5819 42.4699C33.5219 41.6399 33.7418 40.8498 34.0718 40.0898C34.2518 39.6698 34.4318 39.2498 34.5918 38.9098C34.7618 37.9598 34.6819 37.1299 34.0619 36.4699C33.7519 36.1399 33.3318 35.8998 32.9318 35.6698C32.2218 35.2598 31.5718 34.7998 31.1118 34.0998C30.7818 33.5898 30.6318 33.0098 30.4718 32.4298C30.3618 32.0498 30.2319 31.6798 29.9518 31.4098C29.0218 30.4998 27.9518 30.1298 26.6818 30.5898C25.3118 31.0798 24.0018 30.9698 22.7418 30.2298C22.4318 30.0498 22.1018 29.8899 21.7618 29.7899C20.9918 29.5699 20.3018 29.8398 19.6518 30.2298C19.4518 30.3498 19.2718 30.5398 19.1318 30.7398C18.9618 30.9798 18.8618 31.2598 18.7018 31.5098C17.8618 32.8398 16.7618 33.8398 15.1618 34.1598C14.7018 34.2498 14.2718 34.4299 14.0118 34.8398C13.7618 35.2399 13.5318 35.6498 13.3618 36.0898C13.1318 36.6599 13.3018 37.2198 13.4818 37.7798C13.6118 38.1898 13.7418 38.5998 13.7818 39.0198C13.8718 39.9899 13.5418 40.8698 13.0318 41.6698C12.6218 42.3098 12.5218 42.9898 12.6818 43.7298C12.9018 44.7398 13.3618 45.5299 14.4218 45.8799C14.9218 46.0399 15.3418 46.3598 15.6918 46.7598C16.2518 47.3998 16.5918 48.1298 16.6818 48.9798C16.7418 49.5198 16.9918 49.9499 17.4318 50.2498C17.9018 50.5698 18.3918 50.8598 18.8918 51.1299C19.5718 51.4999 20.2518 51.4998 20.9418 51.0898C21.1718 50.9499 21.4418 50.8498 21.7018 50.7998C22.7818 50.5798 23.7918 50.7498 24.6918 51.4098C25.3918 51.9098 26.1118 51.9599 26.9118 51.7199ZM21.8118 48.7598C17.4018 47.7198 14.6818 43.2999 15.7318 38.8799C16.7718 34.4899 21.1918 31.7898 25.6218 32.8398C29.9918 33.8698 32.7018 38.3099 31.6618 42.6999C30.6018 47.0699 26.1818 49.7898 21.8118 48.7598Z" fill="#DAE3FE"/>
<path d="M18.8023 53.9898C17.5623 53.5298 16.4423 52.8398 15.3623 52.0298C15.3323 52.1098 15.2923 52.1798 15.2623 52.2598C14.0623 54.9298 12.8723 57.5798 11.6523 60.2798C13.5123 59.3998 15.3023 58.5598 17.1123 57.6998C17.6923 59.6498 18.2623 61.5698 18.8523 63.5498C20.1223 60.6498 21.3623 57.8098 22.6023 54.9498C22.6123 54.9198 22.6323 54.8898 22.6423 54.8598C21.3123 54.7098 20.0323 54.4498 18.8023 53.9898Z" fill="#DAE3FE"/>
<path d="M30.7908 40.9299C30.8708 36.8899 27.5908 33.6599 23.6608 33.6699C19.7408 33.6799 16.5608 36.8599 16.5508 40.7899C16.5508 44.7299 19.7408 47.9199 23.6908 47.9199C27.5908 47.8799 30.7208 44.7699 30.7908 40.9299ZM19.3908 41.2099C19.8308 40.7599 20.2808 40.2999 20.7408 39.8399C21.3808 40.4799 22.0208 41.1199 22.6908 41.7999C24.2908 40.1899 25.8608 38.6199 27.4308 37.0499C27.8908 37.5099 28.3508 37.9699 28.7908 38.4099C26.7608 40.4399 24.7208 42.4699 22.6908 44.5099C21.5908 43.4199 20.4908 42.3099 19.3908 41.2099Z" fill="#E9EFFD"/>
</g>
</g>
<defs>
<clipPath id="clip0_2_28302">
<rect width="70" height="70" fill="white"/>
</clipPath>
<clipPath id="clip1_2_28302">
<rect width="70" height="70" fill="white"/>
</clipPath>
</defs>
</svg>
