<svg width="70" height="70" viewBox="0 0 70 70" fill="none" xmlns="http://www.w3.org/2000/svg">
<g clip-path="url(#clip0_2_26403)">
<g clip-path="url(#clip1_2_26403)">
<path d="M52.0581 45.9802L43.3881 39.5102C43.2881 39.3902 43.1381 39.3102 42.9681 39.3102C41.6781 39.3102 37.4381 39.0302 37.0681 35.3902C37.0381 35.1002 36.7981 34.8902 36.5081 34.8902H34.3681C34.1481 34.8902 33.9481 35.0202 33.8581 35.2202L32.8181 37.5202C32.2981 38.6802 31.3481 39.5502 30.1581 39.9702C29.0881 40.3502 27.9481 40.3102 26.9081 39.8802L30.8481 33.5502C31.4881 32.5102 32.6481 31.8602 33.8681 31.8602H36.7381C36.8281 31.8602 36.9081 31.8402 36.9781 31.8002H45.3381L44.6881 30.6802H27.2081C27.1881 30.6802 27.1681 30.6902 27.1481 30.6902L26.6981 31.4602C26.7881 31.6602 26.9781 31.7902 27.2081 31.7902H30.9281C30.5281 32.1202 30.1681 32.5002 29.8881 32.9602L25.6281 39.8102C25.5481 39.9402 25.5181 40.1002 25.5681 40.2502C25.6181 40.4002 25.7081 40.5302 25.8481 40.6002L26.0781 40.7202C26.8881 41.1402 27.7681 41.3402 28.6481 41.3402C29.2781 41.3402 29.9081 41.2302 30.5281 41.0202C32.0081 40.5002 33.1881 39.4202 33.8381 37.9802L34.7281 36.0002H36.0281C36.6381 39.1702 39.8081 40.3602 42.7481 40.4102L52.9281 48.0102C53.2781 48.2702 53.5081 48.6402 53.5681 49.0802C53.6381 49.5202 53.5281 49.9602 53.2681 50.3102C53.0081 50.6602 52.6281 50.8902 52.1981 50.9502C51.7681 51.0202 51.3281 50.9102 50.9781 50.6502L41.7081 43.7702C41.4581 43.5802 41.1081 43.6402 40.9281 43.8902C40.7481 44.1402 40.7981 44.4902 41.0481 44.6702L48.2981 50.0502C48.3281 50.0802 48.3481 50.1202 48.3781 50.1402C48.7081 50.3802 48.9181 50.7402 48.9781 51.1602C49.0481 51.6202 48.9281 52.0902 48.6381 52.4802C48.0681 53.2402 47.0381 53.4302 46.3181 52.9002L39.2481 47.7402C38.9981 47.5602 38.6481 47.6102 38.4681 47.8602C38.2881 48.1102 38.3381 48.4602 38.5881 48.6402L43.6581 52.3402C43.6681 52.3402 43.6681 52.3502 43.6681 52.3602C43.9981 52.6002 44.2081 52.9602 44.2681 53.3802C44.3381 53.8402 44.2081 54.3202 43.9281 54.7002C43.6381 55.0902 43.2281 55.3402 42.7681 55.4102C42.3381 55.4702 41.9281 55.3702 41.6081 55.1302L39.4081 53.5002C39.3981 53.4902 39.3881 53.4802 39.3781 53.4702C39.3681 53.4702 39.3681 53.4602 39.3581 53.4602L36.7281 51.5102C36.4781 51.3202 36.1281 51.3802 35.9481 51.6302C35.7681 51.8802 35.8181 52.2302 36.0681 52.4102L38.7481 54.4002C39.4281 54.9302 39.5581 55.9402 39.0181 56.6702C38.7481 57.0402 38.3581 57.2702 37.9081 57.3402C37.4881 57.4002 37.0681 57.3002 36.7281 57.0502L34.9981 55.7902L35.1481 55.5802C35.5881 54.9802 35.7781 54.2502 35.6681 53.5102C35.5581 52.7702 35.1681 52.1202 34.5681 51.6802C33.9981 51.2602 33.2981 51.0702 32.5881 51.1602L33.2381 50.2902C33.6781 49.6902 33.8681 48.9602 33.7581 48.2202C33.6481 47.4802 33.2581 46.8302 32.6581 46.3902C32.0581 45.9502 31.3281 45.7602 30.5881 45.8702C29.8481 45.9802 29.1981 46.3702 28.7581 46.9702L28.1481 47.8002C27.9681 47.2802 27.6381 46.8002 27.1681 46.4502C26.5681 46.0002 25.8181 45.8202 25.0781 45.9302C24.4481 46.0202 23.8881 46.3302 23.4581 46.7902C23.3381 46.1802 23.0081 45.6002 22.4681 45.2002C21.9081 44.7902 21.2281 44.6402 20.5881 44.7202L19.9281 43.3202C19.9181 43.3002 19.9081 43.2902 19.8981 43.2702L19.2281 44.4402L19.5381 45.1002C19.2681 45.2702 19.0281 45.4802 18.8281 45.7502L18.3681 46.3702C17.5181 47.5202 17.7681 49.1602 18.9181 50.0202C18.9181 50.0202 18.9181 50.0202 18.9281 50.0202C19.3981 50.3602 19.9381 50.5202 20.4781 50.5202C20.7881 50.5202 21.0881 50.4502 21.3781 50.3502C21.3681 50.5402 21.3681 50.7402 21.3981 50.9302C21.5081 51.6702 21.8981 52.3302 22.5081 52.7702C22.9981 53.1302 23.5781 53.3202 24.1781 53.3202C24.3181 53.3202 24.4581 53.3102 24.5981 53.2902C24.7181 53.2702 24.8381 53.2302 24.9581 53.2002C24.9881 54.0202 25.3681 54.8102 26.0681 55.3302C26.5681 55.7002 27.1481 55.8802 27.7281 55.8802C28.0981 55.8802 28.4581 55.7902 28.8081 55.6502C28.7981 55.8202 28.8081 55.9902 28.8281 56.1602C28.9381 56.9002 29.3281 57.5502 29.9181 57.9902C30.4181 58.3602 30.9981 58.5402 31.5781 58.5402C32.4281 58.5402 33.2781 58.1502 33.8281 57.4202L34.3581 56.7002L36.0781 57.9702C36.5481 58.3102 37.0981 58.5002 37.6781 58.5002C37.8181 58.5002 37.9581 58.4902 38.0881 58.4702C38.8281 58.3602 39.4781 57.9602 39.9281 57.3602C40.2981 56.8602 40.4681 56.2802 40.4681 55.7002L40.9481 56.0602C41.4081 56.4002 41.9581 56.5802 42.5281 56.5802C42.6681 56.5802 42.8081 56.5702 42.9481 56.5502C43.7081 56.4402 44.3781 56.0302 44.8381 55.4002C45.2181 54.8902 45.4081 54.2702 45.4081 53.6402L45.6581 53.8202C46.1281 54.1702 46.6881 54.3402 47.2381 54.3402C48.1081 54.3402 48.9681 53.9302 49.5381 53.1702C49.9181 52.6502 50.1081 52.0402 50.1081 51.4202L50.3181 51.5802C50.7981 51.9302 51.3681 52.1202 51.9581 52.1202C52.0981 52.1202 52.2281 52.1102 52.3681 52.0902C53.0981 51.9802 53.7481 51.5902 54.1781 51.0002C54.6181 50.4002 54.7981 49.6702 54.6881 48.9402C54.5781 48.2102 54.1881 47.5702 53.6081 47.1402L53.0181 46.7002L53.3981 45.7202L52.6781 44.4802L52.0581 45.9802ZM22.1081 48.1702L21.6481 48.7902C21.1681 49.4502 20.2281 49.5802 19.5581 49.1002C18.8981 48.6102 18.7581 47.6702 19.2481 47.0102L19.7081 46.3902C20.1981 45.7302 21.1381 45.5902 21.7981 46.0702C22.4481 46.5702 22.5881 47.5102 22.1081 48.1702ZM25.4581 51.4202C25.3681 51.5402 25.3081 51.6702 25.2381 51.7902C24.9981 52.0002 24.7081 52.1302 24.3981 52.1802C23.9481 52.2502 23.5081 52.1402 23.1381 51.8702C22.7781 51.6002 22.5381 51.2102 22.4681 50.7602C22.3981 50.3102 22.5081 49.8702 22.7781 49.5002L24.1181 47.6902C24.3881 47.3302 24.7781 47.0902 25.2281 47.0202C25.3081 47.0102 25.3981 47.0002 25.4781 47.0002C25.8381 47.0002 26.1881 47.1102 26.4781 47.3302C27.0781 47.7702 27.2881 48.5402 27.0681 49.2102L25.4581 51.4202ZM29.0381 54.0802C28.4981 54.8202 27.4481 54.9702 26.6981 54.4202C26.0781 53.9602 25.8781 53.1402 26.1581 52.4502C26.2481 52.3602 26.3281 52.2802 26.4081 52.1702L27.7481 50.3602C27.8881 50.1702 27.9981 49.9602 28.0781 49.7502L29.6581 47.6202C29.9181 47.2602 30.3081 47.0302 30.7481 46.9702C31.1881 46.9102 31.6281 47.0202 31.9881 47.2802C32.3481 47.5402 32.5781 47.9302 32.6381 48.3702C32.6981 48.8102 32.5881 49.2502 32.3281 49.6102L29.0381 54.0802ZM34.2481 54.9202L32.8981 56.7402C32.3481 57.4802 31.2981 57.6402 30.5581 57.0902C30.1981 56.8302 29.9681 56.4402 29.9081 56.0002C29.8481 55.5602 29.9581 55.1202 30.2181 54.7602L31.5681 52.9402C31.8281 52.5802 32.2181 52.3502 32.6581 52.2902C32.7381 52.2802 32.8181 52.2702 32.9081 52.2702C33.2681 52.2702 33.6081 52.3802 33.9081 52.6002C34.2681 52.8602 34.4981 53.2502 34.5581 53.6902C34.6281 54.1202 34.5081 54.5602 34.2481 54.9202Z" fill="#4848FF"/>
<path d="M49.5351 26.5498L45.1445 29.0848L54.3795 45.0798L58.7701 42.5448L49.5351 26.5498Z" fill="#4848FF"/>
<path d="M21.8717 27.3184L12.6367 43.3134L17.0274 45.8484L26.2624 29.8534L21.8717 27.3184Z" fill="#4848FF"/>
<path d="M36.4489 25.4601C40.8489 25.4301 44.3789 21.9101 44.4589 17.5701C44.5489 13.0101 40.8489 9.36014 36.4089 9.37014C31.9889 9.38014 28.3789 12.9801 28.3789 17.4101C28.3789 21.8601 31.9889 25.4601 36.4489 25.4601ZM33.1089 16.3501C33.8389 17.0801 34.5489 17.8001 35.3089 18.5601C37.1189 16.7401 38.8889 14.9601 40.6489 13.1801C41.1689 13.7001 41.6789 14.2101 42.1789 14.7101C39.8889 17.0101 37.5889 19.3001 35.2889 21.6001C34.0689 20.3801 32.8289 19.1301 31.5889 17.8901C32.0889 17.3901 32.5989 16.8701 33.1089 16.3501Z" fill="#4848FF"/>
</g>
</g>
<defs>
<clipPath id="clip0_2_26403">
<rect width="70" height="70" fill="white"/>
</clipPath>
<clipPath id="clip1_2_26403">
<rect width="70" height="70" fill="white"/>
</clipPath>
</defs>
</svg>
