<svg width="70" height="70" viewBox="0 0 70 70" fill="none" xmlns="http://www.w3.org/2000/svg">
<g clip-path="url(#clip0_2_26434)">
<g clip-path="url(#clip1_2_26434)">
<path d="M18.1008 51.4993C18.3008 51.5993 18.5008 51.6993 18.7008 51.6993C19.0008 51.6993 19.3008 51.5993 19.5008 51.2993C19.8008 50.8993 19.7008 50.1993 19.3008 49.8993C14.6008 46.3993 11.8008 40.8993 11.8008 35.0993C11.8008 27.6993 16.2008 20.9993 23.0008 18.0993C23.5008 17.8993 23.7008 17.2993 23.5008 16.7993C23.3008 16.2993 22.7008 16.0993 22.2008 16.2993C14.7008 19.4993 9.80078 26.8993 9.80078 35.0993C9.80078 41.5993 12.9008 47.6993 18.1008 51.4993Z" fill="#4848FF"/>
<path d="M48.5992 35.0996C48.5992 43.8996 41.9992 51.6996 33.1992 53.1996H14.1992C13.5992 53.1996 13.1992 53.5996 13.1992 54.1996C13.1992 54.7996 13.5992 55.1996 14.1992 55.1996H33.2992H33.4992C43.2992 53.4996 50.5992 44.8996 50.5992 35.0996C50.5992 24.0996 41.8992 15.0996 30.9992 14.6996L31.8992 13.6996L33.1992 12.2996C33.5992 11.8996 33.5992 11.2996 33.1992 10.8996C32.7992 10.4996 32.1992 10.4996 31.7992 10.8996L27.0992 15.8996L32.1992 20.6996C32.3992 20.8996 32.5992 20.9996 32.8992 20.9996C33.1992 20.9996 33.3992 20.8996 33.5992 20.6996C33.9992 20.2996 33.9992 19.6996 33.5992 19.2996L31.7992 17.5996L30.6992 16.4996C40.4992 16.8996 48.5992 25.0996 48.5992 35.0996Z" fill="#4848FF"/>
<path d="M55.9 49.1996C55.5 48.7996 54.9 48.7996 54.5 49.0996C54.1 49.4996 54.1 50.0996 54.4 50.4996L56.8 53.0996H41.5C40.2 53.8996 38.9 54.5996 37.5 55.0996H56.8L54.2 57.4996C53.8 57.8996 53.8 58.4996 54.1 58.8996C54.3 59.0996 54.6 59.1996 54.8 59.1996C55 59.1996 55.3 59.0996 55.5 58.8996L60.6 54.2996L55.9 49.1996Z" fill="#4848FF"/>
<path d="M30.3984 46.6992C36.4984 46.6992 41.3984 41.7992 41.3984 35.6992C41.3984 29.5992 36.4984 24.6992 30.3984 24.6992C24.2984 24.6992 19.3984 29.5992 19.3984 35.6992C19.3984 41.7992 24.3984 46.6992 30.3984 46.6992ZM33.4984 37.2992L37.3984 35.8992L33.4984 34.4992V32.9992L38.9984 35.0992V36.5992L33.4984 38.6992V37.2992ZM31.6984 30.0992H33.2984L29.4984 40.9992H27.8984L31.6984 30.0992ZM27.4984 32.9992V34.3992L23.5984 35.7992L27.4984 37.1992V38.6992L21.9984 36.5992V35.0992L27.4984 32.9992Z" fill="#4848FF"/>
</g>
</g>
<defs>
<clipPath id="clip0_2_26434">
<rect width="70" height="70" fill="white"/>
</clipPath>
<clipPath id="clip1_2_26434">
<rect width="70" height="70" fill="white"/>
</clipPath>
</defs>
</svg>
