<svg width="70" height="70" viewBox="0 0 70 70" fill="none" xmlns="http://www.w3.org/2000/svg">
<g clip-path="url(#clip0_2_26508)">
<g clip-path="url(#clip1_2_26508)">
<path d="M42.2194 15.9299L34.9794 8.68994L27.7394 15.9299C27.1494 16.5199 27.1494 17.4699 27.7394 18.0499C28.0294 18.3399 28.4194 18.4899 28.7994 18.4899C29.1794 18.4899 29.5694 18.3399 29.8594 18.0499L32.9794 14.9299V39.3599C33.7694 36.8399 35.1594 34.5799 36.9794 32.7599V14.9299L40.0994 18.0499C40.6894 18.6399 41.6394 18.6399 42.2194 18.0499C42.7994 17.4599 42.7994 16.5099 42.2194 15.9299Z" fill="#4848FF"/>
<path d="M56.2191 30.3102L53.9091 28.0002L49.6991 23.7902C49.1091 23.2002 48.1591 23.2002 47.5791 23.7902C46.9991 24.3802 46.9891 25.3302 47.5791 25.9102L49.6091 27.9402L50.6091 28.9402H48.5391C40.5091 28.9402 33.9091 35.1702 33.2891 43.0402C35.1491 45.0002 36.5191 47.4202 37.2291 50.1102V44.2402C37.2291 38.0002 42.2991 32.9302 48.5391 32.9302H50.7991L49.7991 33.9302L47.5791 36.1502C46.9891 36.7402 46.9891 37.6902 47.5791 38.2702C47.8691 38.5602 48.2591 38.7102 48.6391 38.7102C49.0191 38.7102 49.4091 38.5602 49.6991 38.2702L54.1891 33.7802L56.1391 31.8302L56.9391 31.0302L56.2191 30.3102Z" fill="#4848FF"/>
<path d="M21.4686 38.9301H19.3986L20.3986 37.9301L22.4286 35.9001C23.0186 35.3101 23.0186 34.3601 22.4286 33.7801C21.8386 33.2001 20.8886 33.1901 20.3086 33.7801L16.0886 38.0001L13.7786 40.3101L13.0586 41.0301L13.8586 41.8301L15.8086 43.7801L20.2986 48.2701C20.5886 48.5601 20.9786 48.7101 21.3586 48.7101C21.7386 48.7101 22.1286 48.5601 22.4186 48.2701C23.0086 47.6801 23.0086 46.7301 22.4186 46.1501L20.1986 43.9301L19.1986 42.9301H21.4586C27.6986 42.9301 32.7686 48.0001 32.7686 54.2401V62.5901C32.7686 63.6901 33.6686 64.5901 34.7686 64.5901C35.8686 64.5901 36.7686 63.6901 36.7686 62.5901V54.2401C36.7686 45.8001 29.9086 38.9301 21.4686 38.9301Z" fill="#4848FF"/>
</g>
</g>
<defs>
<clipPath id="clip0_2_26508">
<rect width="70" height="70" fill="white"/>
</clipPath>
<clipPath id="clip1_2_26508">
<rect width="70" height="70" fill="white"/>
</clipPath>
</defs>
</svg>
