<svg width="27" height="27" viewBox="0 0 27 27" fill="none" xmlns="http://www.w3.org/2000/svg">
<path d="M4.5 15.7501H7.19437C7.52512 15.7501 7.85138 15.8243 8.14725 15.9683L10.4445 17.0798C10.7404 17.2227 11.0666 17.297 11.3985 17.297H12.5707C13.7047 17.297 14.625 18.1868 14.625 19.2848C14.625 19.3298 14.5946 19.3681 14.5508 19.3805L11.6921 20.1713C11.1792 20.313 10.6322 20.2635 10.1531 20.0318L7.69725 18.8438M9.4455 2.87108C11.1037 1.84283 12.5527 2.25683 13.4224 2.91721C13.779 3.18721 13.9579 3.32221 14.0625 3.32221C14.1671 3.32221 14.346 3.18721 14.7026 2.91721C15.5723 2.25683 17.0201 1.84283 18.6795 2.87108C20.8575 4.22108 21.3503 8.67158 16.3282 12.4268C15.3709 13.1423 14.8927 13.5001 14.0625 13.5001C13.2323 13.5001 12.7541 13.1423 11.7979 12.4268C6.77475 8.67158 7.2675 4.21996 9.4455 2.87108Z" stroke="#4848FF" stroke-width="1.5" stroke-linecap="round" stroke-linejoin="round"/>
<path d="M14.625 18.5626L19.7921 16.9752C20.242 16.8372 20.7239 16.8448 21.1692 16.9969C21.6144 17.149 22.0003 17.4379 22.2716 17.8223C22.6868 18.3961 22.518 19.2196 21.9128 19.5683L13.4584 24.4474C13.194 24.6004 12.9013 24.6979 12.598 24.7341C12.2947 24.7703 11.9873 24.7443 11.6944 24.6578L4.5 22.5226" stroke="#4848FF" stroke-width="1.5" stroke-linecap="round" stroke-linejoin="round"/>
</svg>
