<svg width="32" height="32" viewBox="0 0 32 32" fill="none" xmlns="http://www.w3.org/2000/svg">
<path d="M8.1213 19.9986C7.60218 18.8253 7.33422 17.5563 7.33464 16.2733C7.33464 11.3333 11.2146 7.33195 16.0013 7.33195C20.788 7.33195 24.668 11.3346 24.668 16.2733C24.6684 17.5563 24.4004 18.8253 23.8813 19.9986M16.0013 2.66528V3.99862M29.3346 15.9986H28.0013M4.0013 15.9986H2.66797M25.428 6.57062L24.4853 7.51328M7.5173 7.51462L6.57463 6.57195M19.3573 25.7413C20.704 25.3053 21.2453 24.072 21.3973 22.832C21.4426 22.4613 21.1373 22.1533 20.764 22.1533H11.304C11.2128 22.1518 11.1224 22.1698 11.0386 22.2059C10.9549 22.242 10.8798 22.2955 10.8183 22.3628C10.7568 22.4301 10.7103 22.5097 10.6818 22.5963C10.6534 22.6829 10.6437 22.7746 10.6533 22.8653C10.8026 24.1026 11.1786 25.0066 12.6053 25.74M19.3573 25.7413L12.6053 25.74M19.3573 25.7413C19.196 28.3346 18.4466 29.3613 16.0106 29.332C13.4053 29.38 12.8053 28.1093 12.6053 25.74" stroke="#4848FF" stroke-width="2" stroke-linecap="round" stroke-linejoin="round"/>
</svg>
