<svg width="29" height="29" viewBox="0 0 29 29" fill="none" xmlns="http://www.w3.org/2000/svg">
<path d="M19.6802 3.10718H22.7874C23.3368 3.10718 23.8636 3.32542 24.2521 3.71389C24.6406 4.10235 24.8588 4.62923 24.8588 5.17861V25.8929C24.8588 26.4423 24.6406 26.9691 24.2521 27.3576C23.8636 27.7461 23.3368 27.9643 22.7874 27.9643H6.21596C5.66658 27.9643 5.13971 27.7461 4.75124 27.3576C4.36277 26.9691 4.14453 26.4423 4.14453 25.8929V5.17861C4.14453 4.62923 4.36277 4.10235 4.75124 3.71389C5.13971 3.32542 5.66658 3.10718 6.21596 3.10718H9.3231" stroke="#4848FF" stroke-width="2" stroke-linecap="round" stroke-linejoin="round"/>
<path d="M15.4381 18.2969L20.6167 23.4754M20.6208 18.2969L15.4422 23.4754M17.609 1.03564H11.3947C10.8453 1.03564 10.3184 1.25388 9.92995 1.64235C9.54148 2.03082 9.32324 2.5577 9.32324 3.10707V4.14279C9.32324 4.69216 9.54148 5.21904 9.92995 5.60751C10.3184 5.99598 10.8453 6.21422 11.3947 6.21422H17.609C18.1583 6.21422 18.6852 5.99598 19.0737 5.60751C19.4621 5.21904 19.6804 4.69216 19.6804 4.14279V3.10707C19.6804 2.5577 19.4621 2.03082 19.0737 1.64235C18.6852 1.25388 18.1583 1.03564 17.609 1.03564ZM8.38281 12.849C8.38281 13.5357 8.65561 14.1943 9.1412 14.6799C9.62678 15.1655 10.2854 15.4383 10.9721 15.4383C11.6588 15.4383 12.3174 15.1655 12.803 14.6799C13.2886 14.1943 13.5614 13.5357 13.5614 12.849C13.5614 12.1623 13.2886 11.5037 12.803 11.0181C12.3174 10.5325 11.6588 10.2597 10.9721 10.2597C10.2854 10.2597 9.62678 10.5325 9.1412 11.0181C8.65561 11.5037 8.38281 12.1623 8.38281 12.849Z" stroke="#4848FF" stroke-width="2" stroke-linecap="round" stroke-linejoin="round"/>
</svg>
