<svg width="20" height="20" viewBox="0 0 20 20" fill="none" xmlns="http://www.w3.org/2000/svg">
<path d="M17.8222 0.823242H1.78859C1.78357 0.823242 1.77792 0.823242 1.77165 0.823242C1.01953 0.823242 0.409173 1.42145 0.400391 2.163V18.0937C0.409173 18.8359 1.01953 19.4347 1.77165 19.4347C1.77792 19.4347 1.78357 19.4347 1.78984 19.4347H17.8203C17.8253 19.4347 17.8316 19.4347 17.8379 19.4347C18.5906 19.4347 19.2022 18.8371 19.2141 18.0949V18.0937V2.16424C19.2022 1.42145 18.5906 0.823242 17.8372 0.823242C17.831 0.823242 17.8253 0.823242 17.819 0.823242H17.8222ZM5.98016 16.6832H3.1862V7.80254H5.98016V16.6832ZM4.5838 6.58751C3.68991 6.58751 2.96602 5.87077 2.96602 4.98711C2.96602 4.10346 3.69054 3.38672 4.5838 3.38672C5.47707 3.38672 6.20159 4.10283 6.20159 4.98649C6.20159 4.98711 6.20159 4.98774 6.20159 4.98898C6.20159 5.87201 5.47769 6.58813 4.58506 6.58813C4.58443 6.58813 4.5838 6.58813 4.58318 6.58813L4.5838 6.58751ZM16.4283 16.6832H13.6425V12.3648C13.6425 11.3347 13.6212 10.0098 12.191 10.0098C10.7382 10.0098 10.5167 11.1305 10.5167 12.2891V16.6838H7.73093V7.80316H10.407V9.01385H10.4433C10.9627 8.14818 11.9024 7.57728 12.977 7.57728C13.0152 7.57728 13.0529 7.5779 13.0905 7.57914H13.0849C15.9077 7.57914 16.4296 9.4172 16.4296 11.8094V16.6838L16.4283 16.6832Z" fill="white"/>
</svg>
