<svg width="19" height="20" viewBox="0 0 19 20" fill="none" xmlns="http://www.w3.org/2000/svg">
<path fill-rule="evenodd" clip-rule="evenodd" d="M9.59592 15.0529C12.3508 15.0529 14.5842 12.8196 14.5842 10.0647C14.5842 7.30974 12.3508 5.07642 9.59592 5.07642C6.84099 5.07642 4.60767 7.30974 4.60767 10.0647C4.60767 12.8196 6.84099 15.0529 9.59592 15.0529ZM9.59592 13.3902C11.4325 13.3902 12.9214 11.9013 12.9214 10.0647C12.9214 8.22805 11.4325 6.73917 9.59592 6.73917C7.7593 6.73917 6.27042 8.22805 6.27042 10.0647C6.27042 11.9013 7.7593 13.3902 9.59592 13.3902Z" fill="white"/>
<path d="M14.5842 4.26201C14.1344 4.26201 13.7698 4.62664 13.7698 5.07642C13.7698 5.5262 14.1344 5.89083 14.5842 5.89083C15.034 5.89083 15.3986 5.5262 15.3986 5.07642C15.3986 4.62664 15.034 4.26201 14.5842 4.26201Z" fill="white"/>
<path fill-rule="evenodd" clip-rule="evenodd" d="M0.882778 3.55979C0.332031 4.64069 0.332031 6.05567 0.332031 8.88563V11.2437C0.332031 14.0737 0.332031 15.4887 0.882778 16.5695C1.36723 17.5203 2.14024 18.2934 3.09104 18.7778C4.17194 19.3286 5.58692 19.3286 8.41688 19.3286H10.775C13.6049 19.3286 15.0199 19.3286 16.1008 18.7778C17.0516 18.2934 17.8246 17.5203 18.309 16.5695C18.8598 15.4887 18.8598 14.0737 18.8598 11.2437V8.88563C18.8598 6.05567 18.8598 4.64069 18.309 3.55979C17.8246 2.60899 17.0516 1.83598 16.1008 1.35153C15.0199 0.800781 13.6049 0.800781 10.775 0.800781H8.41688C5.58692 0.800781 4.17194 0.800781 3.09104 1.35153C2.14024 1.83598 1.36723 2.60899 0.882778 3.55979ZM10.775 2.48512H8.41688C6.9741 2.48512 5.99332 2.48644 5.23522 2.54837C4.49677 2.6087 4.11914 2.71806 3.85571 2.85229C3.22185 3.17526 2.70651 3.6906 2.38354 4.32446C2.24931 4.58789 2.13995 4.96552 2.07962 5.70397C2.01769 6.46207 2.01637 7.44285 2.01637 8.88563V11.2437C2.01637 12.6865 2.01769 13.6672 2.07962 14.4254C2.13995 15.1639 2.24931 15.5415 2.38354 15.8049C2.70651 16.4387 3.22185 16.9541 3.85571 17.277C4.11914 17.4113 4.49677 17.5207 5.23522 17.581C5.99332 17.6429 6.9741 17.6442 8.41688 17.6442H10.775C12.2178 17.6442 13.1985 17.6429 13.9566 17.581C14.6951 17.5207 15.0727 17.4113 15.3362 17.277C15.97 16.9541 16.4853 16.4387 16.8083 15.8049C16.9425 15.5415 17.0519 15.1639 17.1122 14.4254C17.1741 13.6672 17.1755 12.6865 17.1755 11.2437V8.88563C17.1755 7.44285 17.1741 6.46207 17.1122 5.70397C17.0519 4.96552 16.9425 4.58789 16.8083 4.32446C16.4853 3.6906 15.97 3.17526 15.3362 2.85229C15.0727 2.71806 14.6951 2.6087 13.9566 2.54837C13.1985 2.48644 12.2178 2.48512 10.775 2.48512Z" fill="white"/>
</svg>
