<svg width="165" height="114" viewBox="0 0 165 114" fill="none" xmlns="http://www.w3.org/2000/svg">
<path d="M31.9528 110C31.6221 110 31.3661 109.909 31.1848 109.728C31.0035 109.547 30.9128 109.291 30.9128 108.96V98.8H35.5528C36.3421 98.8 37.0355 98.9547 37.6328 99.264C38.2301 99.5627 38.6941 99.9947 39.0248 100.56C39.3555 101.115 39.5208 101.755 39.5208 102.48V106C39.5208 107.312 39.1901 108.309 38.5288 108.992C37.8675 109.664 36.8968 110 35.6168 110H31.9528ZM35.5848 108.944C36.4915 108.944 37.1741 108.699 37.6328 108.208C38.1021 107.707 38.3368 106.971 38.3368 106V102.48C38.3368 101.701 38.0755 101.072 37.5528 100.592C37.0408 100.101 36.3635 99.856 35.5208 99.856H32.0968V108.944H35.5848ZM44.2861 110.128C43.3901 110.128 42.6701 109.867 42.1261 109.344C41.5821 108.811 41.3101 108.107 41.3101 107.232V104.944C41.3101 104.027 41.5821 103.291 42.1261 102.736C42.6701 102.171 43.3901 101.888 44.2861 101.888H45.5981C46.4514 101.888 47.1394 102.16 47.6621 102.704C48.1847 103.248 48.4461 103.968 48.4461 104.864V106.272H42.4621V107.232C42.4621 107.787 42.6274 108.24 42.9581 108.592C43.2994 108.933 43.7421 109.104 44.2861 109.104H45.5021C46.0354 109.104 46.4674 108.96 46.7981 108.672C47.1287 108.373 47.2941 107.979 47.2941 107.488H48.4141C48.4141 108.277 48.1474 108.917 47.6141 109.408C47.0807 109.888 46.3767 110.128 45.5021 110.128H44.2861ZM47.2941 105.28V104.864C47.2941 104.277 47.1394 103.808 46.8301 103.456C46.5207 103.093 46.1101 102.912 45.5981 102.912H44.2861C43.7421 102.912 43.2994 103.099 42.9581 103.472C42.6274 103.845 42.4621 104.336 42.4621 104.944V105.28H47.2941ZM53.1142 110.128C52.2182 110.128 51.4982 109.867 50.9542 109.344C50.4102 108.811 50.1382 108.107 50.1382 107.232V104.944C50.1382 104.027 50.4102 103.291 50.9542 102.736C51.4982 102.171 52.2182 101.888 53.1142 101.888H54.4262C55.2795 101.888 55.9675 102.16 56.4902 102.704C57.0129 103.248 57.2742 103.968 57.2742 104.864V106.272H51.2902V107.232C51.2902 107.787 51.4555 108.24 51.7862 108.592C52.1275 108.933 52.5702 109.104 53.1142 109.104H54.3302C54.8635 109.104 55.2955 108.96 55.6262 108.672C55.9569 108.373 56.1222 107.979 56.1222 107.488H57.2422C57.2422 108.277 56.9755 108.917 56.4422 109.408C55.9089 109.888 55.2049 110.128 54.3302 110.128H53.1142ZM56.1222 105.28V104.864C56.1222 104.277 55.9675 103.808 55.6582 103.456C55.3489 103.093 54.9382 102.912 54.4262 102.912H53.1142C52.5702 102.912 52.1275 103.099 51.7862 103.472C51.4555 103.845 51.2902 104.336 51.2902 104.944V105.28H56.1222ZM59.2863 102.016H60.4063V103.104C60.6303 102.741 60.9236 102.448 61.2863 102.224C61.6596 102 62.033 101.888 62.4063 101.888H63.5583C64.4116 101.888 65.0996 102.16 65.6223 102.704C66.1556 103.248 66.4223 103.968 66.4223 104.864V106.832C66.4223 107.824 66.1503 108.624 65.6063 109.232C65.073 109.829 64.3636 110.128 63.4783 110.128H62.3263C61.9956 110.128 61.649 110.037 61.2863 109.856C60.9236 109.664 60.641 109.419 60.4383 109.12V113.184H59.2863V102.016ZM63.4463 109.104C64.001 109.104 64.4436 108.896 64.7743 108.48C65.105 108.064 65.2703 107.515 65.2703 106.832V104.864C65.2703 104.277 65.1103 103.808 64.7903 103.456C64.4703 103.093 64.049 102.912 63.5263 102.912H62.4063C61.9583 102.912 61.553 103.088 61.1903 103.44C60.8276 103.781 60.577 104.224 60.4383 104.768V107.168C60.513 107.733 60.7316 108.197 61.0943 108.56C61.457 108.923 61.889 109.104 62.3903 109.104H63.4463ZM73.7966 110C73.4659 110 73.2099 109.909 73.0286 109.728C72.8472 109.547 72.7566 109.291 72.7566 108.96V98.8H73.9406V108.944H80.0206V110H73.7966ZM84.1142 110.128C83.2182 110.128 82.4982 109.867 81.9542 109.344C81.4102 108.811 81.1382 108.107 81.1382 107.232V104.944C81.1382 104.027 81.4102 103.291 81.9542 102.736C82.4982 102.171 83.2182 101.888 84.1142 101.888H85.4262C86.2795 101.888 86.9675 102.16 87.4902 102.704C88.0129 103.248 88.2742 103.968 88.2742 104.864V106.272H82.2902V107.232C82.2902 107.787 82.4555 108.24 82.7862 108.592C83.1275 108.933 83.5702 109.104 84.1142 109.104H85.3302C85.8635 109.104 86.2955 108.96 86.6262 108.672C86.9569 108.373 87.1222 107.979 87.1222 107.488H88.2422C88.2422 108.277 87.9755 108.917 87.4422 109.408C86.9089 109.888 86.2049 110.128 85.3302 110.128H84.1142ZM87.1222 105.28V104.864C87.1222 104.277 86.9675 103.808 86.6582 103.456C86.3489 103.093 85.9382 102.912 85.4262 102.912H84.1142C83.5702 102.912 83.1275 103.099 82.7862 103.472C82.4555 103.845 82.2902 104.336 82.2902 104.944V105.28H87.1222ZM92.5903 110.128C91.8116 110.128 91.1876 109.925 90.7183 109.52C90.2596 109.115 90.0303 108.571 90.0303 107.888V107.376C90.0303 106.704 90.2703 106.165 90.7503 105.76C91.2303 105.355 91.865 105.152 92.6543 105.152H93.6783C94.0303 105.152 94.393 105.205 94.7663 105.312C95.1396 105.419 95.4596 105.563 95.7263 105.744V104.416C95.7263 103.968 95.5876 103.605 95.3103 103.328C95.033 103.04 94.665 102.896 94.2063 102.896H92.9263C92.4676 102.896 92.0996 103.003 91.8223 103.216C91.545 103.429 91.4063 103.712 91.4063 104.064H90.2543C90.2543 103.413 90.4996 102.891 90.9903 102.496C91.481 102.091 92.1263 101.888 92.9263 101.888H94.2063C94.9956 101.888 95.6303 102.123 96.1103 102.592C96.601 103.051 96.8463 103.659 96.8463 104.416V110H95.7583V108.88C95.513 109.264 95.1876 109.568 94.7823 109.792C94.3876 110.016 93.977 110.128 93.5503 110.128H92.5903ZM93.5823 109.12C94.0836 109.12 94.5316 108.965 94.9263 108.656C95.321 108.347 95.5876 107.936 95.7263 107.424V106.832C95.513 106.629 95.2143 106.469 94.8303 106.352C94.457 106.224 94.073 106.16 93.6783 106.16H92.6543C92.217 106.16 91.8596 106.272 91.5823 106.496C91.3156 106.72 91.1823 107.013 91.1823 107.376V107.888C91.1823 108.261 91.3103 108.56 91.5663 108.784C91.8223 109.008 92.1636 109.12 92.5903 109.12H93.5823ZM99.1769 102.016H100.297V103.248C100.51 102.875 100.83 102.571 101.257 102.336C101.694 102.101 102.148 101.984 102.617 101.984H103.321V103.024H102.617C101.934 103.024 101.38 103.243 100.953 103.68C100.537 104.107 100.329 104.677 100.329 105.392V110H99.1769V102.016ZM104.864 102.016H105.984V103.2C106.23 102.816 106.55 102.501 106.944 102.256C107.339 102.011 107.734 101.888 108.128 101.888H109.216C109.952 101.888 110.544 102.139 110.992 102.64C111.451 103.141 111.68 103.797 111.68 104.608V110H110.528V104.576C110.528 104.085 110.406 103.685 110.16 103.376C109.915 103.067 109.59 102.912 109.184 102.912H108.16C107.659 102.912 107.2 103.109 106.784 103.504C106.379 103.899 106.123 104.405 106.016 105.024V110H104.864V102.016ZM114.885 100.816C114.629 100.816 114.421 100.736 114.261 100.576C114.101 100.416 114.021 100.208 114.021 99.952C114.021 99.696 114.101 99.488 114.261 99.328C114.421 99.168 114.629 99.088 114.885 99.088C115.141 99.088 115.349 99.168 115.509 99.328C115.669 99.488 115.749 99.696 115.749 99.952C115.749 100.208 115.669 100.416 115.509 100.576C115.349 100.736 115.141 100.816 114.885 100.816ZM114.309 102.016H115.461V110H114.309V102.016ZM118.177 102.016H119.297V103.2C119.542 102.816 119.862 102.501 120.257 102.256C120.652 102.011 121.046 101.888 121.441 101.888H122.529C123.265 101.888 123.857 102.139 124.305 102.64C124.764 103.141 124.993 103.797 124.993 104.608V110H123.841V104.576C123.841 104.085 123.718 103.685 123.473 103.376C123.228 103.067 122.902 102.912 122.497 102.912H121.473C120.972 102.912 120.513 103.109 120.097 103.504C119.692 103.899 119.436 104.405 119.329 105.024V110H118.177V102.016ZM129.925 113.248C129.221 113.248 128.64 113.056 128.181 112.672C127.723 112.299 127.467 111.803 127.413 111.184H128.565C128.608 111.504 128.752 111.76 128.997 111.952C129.253 112.155 129.563 112.256 129.925 112.256H131.253C131.808 112.256 132.235 112.069 132.533 111.696C132.843 111.333 132.997 110.821 132.997 110.16V108.928C132.763 109.248 132.453 109.509 132.069 109.712C131.696 109.904 131.333 110 130.981 110H129.813C129.269 110 128.784 109.872 128.357 109.616C127.931 109.36 127.6 109.003 127.365 108.544C127.131 108.085 127.013 107.552 127.013 106.944V105.072C127.013 104.123 127.285 103.355 127.829 102.768C128.384 102.181 129.109 101.888 130.005 101.888H131.125C131.467 101.888 131.819 101.984 132.181 102.176C132.544 102.368 132.827 102.613 133.029 102.912V102.016H134.149V110.16C134.149 111.131 133.893 111.888 133.381 112.432C132.869 112.976 132.16 113.248 131.253 113.248H129.925ZM130.981 108.976C131.515 108.976 131.968 108.768 132.341 108.352C132.725 107.925 132.944 107.387 132.997 106.736V104.768C132.955 104.224 132.752 103.781 132.389 103.44C132.037 103.088 131.616 102.912 131.125 102.912H130.037C129.472 102.912 129.019 103.109 128.677 103.504C128.336 103.899 128.165 104.421 128.165 105.072V106.944C128.165 107.541 128.32 108.032 128.629 108.416C128.949 108.789 129.355 108.976 129.845 108.976H130.981Z" fill="#E23C4B"/>
<path fill-rule="evenodd" clip-rule="evenodd" d="M81.6161 4.47949C80.9116 4.47949 80.236 4.76264 79.7379 5.26664C79.2397 5.77065 78.9599 6.45422 78.9599 7.16699V25.5316H73.1604L66.8651 19.1622C67.5573 17.4384 67.639 15.5255 67.0963 13.7477C66.5536 11.97 65.4198 10.4368 63.8873 9.40835C62.3548 8.37986 60.5179 7.91932 58.688 8.10482C56.8582 8.29031 55.1481 9.11043 53.8477 10.4261C52.5474 11.7418 51.7368 13.472 51.5535 15.3233C51.3701 17.1747 51.8253 19.0333 52.8418 20.5838C53.8584 22.1343 55.3736 23.2814 57.1307 23.8305C58.8878 24.3797 60.7785 24.297 62.4823 23.5966L69.686 30.8833C70.2669 31.4714 71.0548 31.802 71.8765 31.8024H78.9599V39.8649H57.9702C57.255 38.1502 55.9756 36.7386 54.349 35.8694C52.7225 35.0003 50.8488 34.7271 49.0459 35.0962C47.2429 35.4654 45.6217 36.4541 44.4571 37.8947C43.2925 39.3354 42.6562 41.1392 42.6562 43.0003C42.6562 44.8615 43.2925 46.6653 44.4571 48.1059C45.6217 49.5465 47.2429 50.5353 49.0459 50.9044C50.8488 51.2735 52.7225 51.0004 54.349 50.1312C55.9756 49.2621 57.255 47.8504 57.9702 46.1357H78.9599V55.9899H70.1057C69.284 55.9899 68.4942 56.3196 67.9152 56.909L60.7114 64.1957C59.0077 63.4953 57.117 63.4127 55.3599 63.9618C53.6028 64.5109 52.0875 65.658 51.071 67.2085C50.0545 68.7591 49.5993 70.6176 49.7826 72.469C49.966 74.3203 50.7765 76.0506 52.0769 77.3662C53.3773 78.6819 55.0874 79.502 56.9172 79.6875C58.7471 79.873 60.584 79.4125 62.1165 78.384C63.649 77.3555 64.7828 75.8224 65.3255 74.0446C65.8682 72.2668 65.7865 70.3539 65.0942 68.6301L71.3896 62.2607H78.9599V80.387C78.9599 81.0998 79.2397 81.7834 79.7379 82.2874C80.236 82.7914 80.9116 83.0745 81.6161 83.0745H96.6682C97.3727 83.0745 98.0483 82.7914 98.5465 82.2874C99.0446 81.7834 99.3245 81.0998 99.3245 80.387V73.6557L104.492 74.539C105.579 74.7246 106.692 74.68 107.761 74.4081C108.83 74.1361 109.832 73.6427 110.703 72.9591C111.574 72.2754 112.295 71.4164 112.821 70.4362C113.347 69.4561 113.666 68.3762 113.759 67.2649L114.616 56.952C116.773 56.3134 118.831 55.3701 120.729 54.1499C123.631 52.2507 123.65 48.6297 122.104 46.3131L115.165 35.9214C113.854 18.3362 99.3351 4.47949 81.6161 4.47949Z" fill="url(#paint0_linear_113_1182)"/>
<defs>
<linearGradient id="paint0_linear_113_1182" x1="82.8913" y1="4.47949" x2="82.8913" y2="83.0745" gradientUnits="userSpaceOnUse">
<stop stop-color="#E75F24"/>
<stop offset="1" stop-color="#DD2557"/>
</linearGradient>
</defs>
</svg>
