<svg width="21" height="21" viewBox="0 0 21 21" fill="none" xmlns="http://www.w3.org/2000/svg">
<path d="M20.2774 10.7224C20.254 8.80403 19.6862 6.93233 18.6409 5.32774C17.5956 3.72315 16.1164 2.45249 14.3775 1.66543C12.6385 0.878358 10.7122 0.607659 8.82547 0.885191C6.93876 1.16274 5.17012 1.97695 3.7279 3.23197C2.28566 4.48699 1.22989 6.13054 0.684914 7.96904C0.13995 9.80757 0.128469 11.7645 0.651846 13.6093C1.17522 15.4542 2.21165 17.1101 3.63906 18.3822C5.06647 19.6543 6.82543 20.4894 8.70878 20.7893V13.6544H6.20747V10.7224H8.70878V8.4951C8.65088 7.97723 8.70665 7.45286 8.87224 6.95903C9.03783 6.4652 9.3091 6.01395 9.66691 5.63713C10.0247 5.2603 10.4603 4.96709 10.9431 4.7782C11.4258 4.58929 11.944 4.5093 12.4608 4.54388C13.2109 4.55421 13.9593 4.62152 14.6994 4.74522V7.26194H13.4488C13.2332 7.23457 13.0141 7.25632 12.8079 7.32556C12.6017 7.39481 12.4136 7.50979 12.2575 7.662C12.1014 7.81421 11.9814 7.99977 11.9062 8.20492C11.8309 8.41016 11.8025 8.62974 11.8229 8.84744V10.7476H14.5994L14.1492 13.6796H11.8354V20.7264C14.1991 20.3503 16.3504 19.1342 17.8993 17.2987C19.4481 15.4633 20.2918 13.1301 20.2774 10.7224Z" fill="white"/>
</svg>
